name C:\Users\u0101727\Documents\MyRepositories\upper-imu-dc\Results\main_tracking\Case_44\kinematics_filtered.mot
datacolumns 10
datarows 23
range 2.00000000 2.22000000
endheader 
time	clav_prot	clav_elev	scapula_abduction	scapula_elevation	scapula_upward_rot	scapula_winging	plane_elv	shoulder_elv	axial_rot	
          2.00000000	        -25.43997555	          4.22752571	          8.38234900	         -4.54321530	         51.52757980	         -4.99706144	         61.30580874	         71.16858159	        -20.35265847	
          2.01000000	        -25.53914833	          4.29988092	          8.50404538	         -4.52285786	         51.90700756	         -5.05901521	         61.11919761	         71.47958772	        -20.21148217	
          2.02000000	        -25.64226822	          4.36808172	          8.61992736	         -4.50483559	         52.28618122	         -5.11923656	         60.92880528	         71.78940821	        -20.06570478	
          2.03000000	        -25.74922342	          4.43234113	          8.72998030	         -4.48898088	         52.66493450	         -5.17780443	         60.73491531	         72.09800555	        -19.91550111	
          2.04000000	        -25.85989405	          4.49289508	          8.83419658	         -4.47511147	         53.04309910	         -5.23480359	         60.53780220	         72.40533743	        -19.76110139	
          2.05000000	        -25.97415479	          4.54999930	          8.93257407	         -4.46303285	         53.42050730	         -5.29032430	         60.33772986	         72.71135728	        -19.60277971	
          2.06000000	        -26.09187727	          4.60392607	          9.02511487	         -4.45254089	         53.79699434	         -5.34446169	         60.13495028	         73.01601529	        -19.44084109	
          2.07000000	        -26.21293220	          4.65496084	          9.11182397	         -4.44342437	         54.17240025	         -5.39731531	         59.92970261	         73.31925961	        -19.27560769	
          2.08000000	        -26.33719130	          4.70339888	          9.19270824	         -4.43546739	         54.54657143	         -5.44898841	         59.72221252	         73.62103768	        -19.10740500	
          2.09000000	        -26.46452889	          4.74954220	          9.26777531	         -4.42845170	         54.91936178	         -5.49958740	         59.51269170	         73.92129768	        -18.93654882	
          2.10000000	        -26.59482326	          4.79369657	          9.33703273	         -4.42215870	         55.29063357	         -5.54922121	         59.30133753	         74.21998976	        -18.76333383	
          2.11000000	        -26.72795772	          4.83616893	          9.40048733	         -4.41637125	         55.66025802	         -5.59800074	         59.08833277	         74.51706710	        -18.58802453	
          2.12000000	        -26.86382124	          4.87726506	          9.45814487	         -4.41087524	         56.02811548	         -5.64603827	         58.87384522	         74.81248655	        -18.41084931	
          2.13000000	        -27.00230869	          4.91728747	          9.51001017	         -4.40546088	         56.39409555	         -5.69344685	         58.65802730	         75.10620890	        -18.23199784	
          2.14000000	        -27.14332070	          4.95653350	          9.55608756	         -4.39992397	         56.75809670	         -5.74033974	         58.44101571	         75.39819874	        -18.05162181	
          2.15000000	        -27.28676317	          4.99529337	          9.59638183	         -4.39406700	         57.12002577	         -5.78682967	         58.22293112	         75.68842390	        -17.86983887	
          2.16000000	        -27.43254647	          5.03384826	          9.63089939	         -4.38770030	         57.47979721	         -5.83302805	         58.00387813	         75.97685467	        -17.68673900	
          2.17000000	        -27.58058455	          5.07246826	          9.65964959	         -4.38064328	         57.83733222	         -5.87904421	         57.78394564	         76.26346276	        -17.50239259	
          2.18000000	        -27.73079406	          5.11141025	          9.68264595	         -4.37272572	         58.19255779	         -5.92498443	         57.56320770	         76.54822010	        -17.31685940	
          2.19000000	        -27.88309359	          5.15091572	          9.69990717	         -4.36378911	         58.54540585	         -5.97095109	         57.34172514	         76.83109764	        -17.13019752	
          2.20000000	        -28.03740321	          5.19120860	          9.71145780	         -4.35368798	         58.89581240	         -6.01704183	         57.11954771	         77.11206412	        -16.94247162	
          2.21000000	        -28.19364431	          5.23249323	          9.71732840	         -4.34229128	         59.24371702	         -6.06334878	         56.89671694	         77.39108489	        -16.75375997	
          2.22000000	        -28.35173974	          5.27495245	          9.71755523	         -4.32948356	         59.58906230	         -6.10995788	         56.67326941	         77.66812089	        -16.56415977	
